<mxfile host="app.diagrams.net" modified="2023-01-03T13:49:50.278Z" agent="5.0 (Macintosh)" version="20.7.4" etag="CFb1aK2ioDANp4iAkzfv" type="github">
  <diagram id="Z-3wMT12V0U_0ovYJJmp" name="Page-1">
    <mxGraphModel dx="1361" dy="769" grid="1" gridSize="10" guides="1" tooltips="1" connect="1" arrows="1" fold="1" page="1" pageScale="1" pageWidth="827" pageHeight="1169" math="0" shadow="0">
      <root>
        <mxCell id="0" />
        <mxCell id="1" parent="0" />
        <mxCell id="3DlPS2AlrNXzs3LJpaiu-5" value="Push changes" style="edgeStyle=orthogonalEdgeStyle;rounded=0;orthogonalLoop=1;jettySize=auto;html=1;" edge="1" parent="1" source="3DlPS2AlrNXzs3LJpaiu-1" target="3DlPS2AlrNXzs3LJpaiu-4">
          <mxGeometry relative="1" as="geometry" />
        </mxCell>
        <mxCell id="3DlPS2AlrNXzs3LJpaiu-1" value="Developer" style="shape=umlActor;verticalLabelPosition=bottom;verticalAlign=top;html=1;outlineConnect=0;" vertex="1" parent="1">
          <mxGeometry x="60" y="110" width="30" height="60" as="geometry" />
        </mxCell>
        <mxCell id="3DlPS2AlrNXzs3LJpaiu-4" value="" style="dashed=0;outlineConnect=0;html=1;align=center;labelPosition=center;verticalLabelPosition=bottom;verticalAlign=top;shape=mxgraph.weblogos.github" vertex="1" parent="1">
          <mxGeometry x="250" y="102.5" width="75" height="75" as="geometry" />
        </mxCell>
        <mxCell id="3DlPS2AlrNXzs3LJpaiu-6" value="Jenkins" style="rounded=0;whiteSpace=wrap;html=1;" vertex="1" parent="1">
          <mxGeometry x="550" y="360" width="120" height="60" as="geometry" />
        </mxCell>
      </root>
    </mxGraphModel>
  </diagram>
</mxfile>
